<svg xmlns:xlink="http://www.w3.org/1999/xlink" xmlns="http://www.w3.org/2000/svg" viewBox="87.22829999999999 152.94 201.6 40.5" preserveAspectRatio="xMidYMid meet" style="max-height: 500px" width="201.6" height="40.5"><defs><g></g><clipPath id="3e9046bfca"><path clip-rule="nonzero" d="M 96.238281 186 L 147 186 L 147 187.214844 L 96.238281 187.214844 Z M 96.238281 186"></path></clipPath><clipPath id="7c321c04f1"><path clip-rule="nonzero" d="M 109 166 L 124 166 L 124 187.214844 L 109 187.214844 Z M 109 166"></path></clipPath><clipPath id="6f0b7bb72a"><path clip-rule="nonzero" d="M 114 157.964844 L 135 157.964844 L 135 187.214844 L 114 187.214844 Z M 114 157.964844"></path></clipPath><clipPath id="dcdf9cd119"><path clip-rule="nonzero" d="M 102 177 L 104 177 L 104 187.214844 L 102 187.214844 Z M 102 177"></path></clipPath><clipPath id="6837b3a284"><path clip-rule="nonzero" d="M 139 177 L 141 177 L 141 187.214844 L 139 187.214844 Z M 139 177"></path></clipPath><clipPath id="fa45d15fda"><path clip-rule="nonzero" d="M 5 0.441406 L 9 0.441406 L 9 8 L 5 8 Z M 5 0.441406"></path></clipPath><clipPath id="3fe6fcc1e5"><path clip-rule="nonzero" d="M 31 0.441406 L 35 0.441406 L 35 8 L 31 8 Z M 31 0.441406"></path></clipPath><clipPath id="43fe1b79d3"><path clip-rule="nonzero" d="M 44 0.441406 L 45 0.441406 L 45 8 L 44 8 Z M 44 0.441406"></path></clipPath><clipPath id="80d585d6e0"><path clip-rule="nonzero" d="M 56 0.441406 L 60 0.441406 L 60 8 L 56 8 Z M 56 0.441406"></path></clipPath><clipPath id="31488fe901"><rect height="10" y="0" width="66" x="0"></rect></clipPath></defs><rect fill-opacity="1" height="449.999989" y="-37.499999" fill="#ffffff" width="450" x="-37.5"></rect><rect fill-opacity="1" height="449.999989" y="-37.499999" fill="#ffffff" width="450" x="-37.5"></rect><g clip-path="url(#3e9046bfca)"><path fill-rule="nonzero" fill-opacity="1" d="M 96.414062 186.402344 L 146.980469 186.402344 L 146.980469 187.488281 L 96.414062 187.488281 Z M 96.414062 186.402344" fill="#a17937"></path></g><g clip-path="url(#7c321c04f1)"><path fill-rule="nonzero" fill-opacity="1" d="M 123.300781 187.4375 L 109.320312 187.4375 L 109.320312 173.355469 L 123.300781 166.285156 Z M 110.402344 186.351562 L 122.207031 186.351562 L 122.207031 168.058594 L 110.402344 174.023438 Z M 110.402344 186.351562" fill="#a17937"></path></g><g clip-path="url(#6f0b7bb72a)"><path fill-rule="nonzero" fill-opacity="1" d="M 134.078125 187.488281 L 114.621094 187.488281 L 114.621094 157.96875 L 134.078125 167.804688 Z M 115.710938 186.402344 L 132.992188 186.402344 L 132.992188 168.472656 L 115.710938 159.738281 Z M 115.710938 186.402344" fill="#a17937"></path></g><path fill-rule="nonzero" fill-opacity="1" d="M 103.339844 181.304688 C 101.433594 181.304688 99.886719 179.757812 99.886719 177.851562 C 99.886719 175.945312 101.441406 174.398438 103.339844 174.398438 C 105.246094 174.398438 106.796875 175.945312 106.796875 177.851562 C 106.796875 179.753906 105.246094 181.304688 103.339844 181.304688 Z M 103.339844 175.480469 C 102.035156 175.480469 100.976562 176.542969 100.976562 177.847656 C 100.976562 179.152344 102.035156 180.214844 103.339844 180.214844 C 104.644531 180.214844 105.707031 179.152344 105.707031 177.847656 C 105.707031 176.546875 104.644531 175.480469 103.339844 175.480469 Z M 103.339844 175.480469" fill="#a17937"></path><g clip-path="url(#dcdf9cd119)"><path fill-rule="nonzero" fill-opacity="1" d="M 102.800781 177.851562 L 103.886719 177.851562 L 103.886719 187.488281 L 102.800781 187.488281 Z M 102.800781 177.851562" fill="#a17937"></path></g><path fill-rule="nonzero" fill-opacity="1" d="M 140.054688 181.304688 C 138.148438 181.304688 136.597656 179.757812 136.597656 177.851562 C 136.597656 175.945312 138.148438 174.398438 140.054688 174.398438 C 141.960938 174.398438 143.507812 175.945312 143.507812 177.851562 C 143.507812 179.753906 141.960938 181.304688 140.054688 181.304688 Z M 140.054688 175.480469 C 138.75 175.480469 137.6875 176.542969 137.6875 177.847656 C 137.6875 179.152344 138.75 180.214844 140.054688 180.214844 C 141.359375 180.214844 142.417969 179.152344 142.417969 177.847656 C 142.417969 176.546875 141.359375 175.480469 140.054688 175.480469 Z M 140.054688 175.480469" fill="#a17937"></path><g clip-path="url(#6837b3a284)"><path fill-rule="nonzero" fill-opacity="1" d="M 139.511719 177.851562 L 140.597656 177.851562 L 140.597656 187.488281 L 139.511719 187.488281 Z M 139.511719 177.851562" fill="#a17937"></path></g><g fill-opacity="1" fill="#000000"><g transform="translate(147.9648, 172.528114)"><g><path d="M 6.734375 -1.171875 C 6.921875 -0.941406 7.09375 -0.738281 7.25 -0.5625 C 7.414062 -0.394531 7.628906 -0.207031 7.890625 0 L 6.203125 0 C 6.085938 -0.207031 5.96875 -0.390625 5.84375 -0.546875 C 5.726562 -0.703125 5.566406 -0.90625 5.359375 -1.15625 L 2.640625 -4.484375 L 1.9375 -3.71875 L 1.9375 -2.171875 C 1.9375 -1.898438 1.9375 -1.660156 1.9375 -1.453125 C 1.945312 -1.242188 1.957031 -1.023438 1.96875 -0.796875 C 1.976562 -0.578125 2 -0.3125 2.03125 0 L 0.765625 0 C 0.785156 -0.3125 0.800781 -0.578125 0.8125 -0.796875 C 0.832031 -1.023438 0.84375 -1.242188 0.84375 -1.453125 C 0.851562 -1.660156 0.859375 -1.898438 0.859375 -2.171875 L 0.859375 -6.640625 C 0.859375 -6.910156 0.851562 -7.148438 0.84375 -7.359375 C 0.84375 -7.566406 0.832031 -7.78125 0.8125 -8 C 0.800781 -8.226562 0.785156 -8.492188 0.765625 -8.796875 L 2.03125 -8.796875 C 2 -8.492188 1.976562 -8.226562 1.96875 -8 C 1.957031 -7.78125 1.945312 -7.566406 1.9375 -7.359375 C 1.9375 -7.148438 1.9375 -6.910156 1.9375 -6.640625 L 1.9375 -3.96875 L 5.40625 -7.71875 C 5.582031 -7.914062 5.738281 -8.09375 5.875 -8.25 C 6.007812 -8.40625 6.148438 -8.585938 6.296875 -8.796875 L 6.75 -8.796875 C 6.5 -8.585938 6.289062 -8.40625 6.125 -8.25 C 5.96875 -8.09375 5.800781 -7.921875 5.625 -7.734375 L 3.390625 -5.296875 Z M 6.734375 -1.171875"></path></g></g></g><g fill-opacity="1" fill="#000000"><g transform="translate(156.175992, 172.528114)"><g><path d="M 4.484375 -5.1875 L 5.5625 -5.1875 L 5.5625 0 L 4.53125 0 C 4.550781 -0.257812 4.566406 -0.476562 4.578125 -0.65625 C 4.585938 -0.84375 4.59375 -1.015625 4.59375 -1.171875 C 4.476562 -0.953125 4.316406 -0.734375 4.109375 -0.515625 C 3.910156 -0.304688 3.675781 -0.132812 3.40625 0 C 3.132812 0.144531 2.820312 0.21875 2.46875 0.21875 C 1.9375 0.21875 1.53125 0.0546875 1.25 -0.265625 C 0.976562 -0.597656 0.84375 -1.128906 0.84375 -1.859375 L 0.84375 -3.046875 C 0.84375 -3.273438 0.835938 -3.484375 0.828125 -3.671875 C 0.828125 -3.859375 0.816406 -4.066406 0.796875 -4.296875 C 0.773438 -4.535156 0.742188 -4.832031 0.703125 -5.1875 L 1.796875 -5.1875 L 1.796875 -1.578125 C 1.796875 -1.078125 1.875 -0.695312 2.03125 -0.4375 C 2.195312 -0.175781 2.457031 -0.046875 2.8125 -0.046875 C 3.09375 -0.046875 3.347656 -0.109375 3.578125 -0.234375 C 3.804688 -0.367188 4.003906 -0.539062 4.171875 -0.75 C 4.347656 -0.957031 4.492188 -1.175781 4.609375 -1.40625 L 4.609375 -3.046875 C 4.609375 -3.273438 4.601562 -3.484375 4.59375 -3.671875 C 4.59375 -3.859375 4.582031 -4.066406 4.5625 -4.296875 C 4.550781 -4.535156 4.523438 -4.832031 4.484375 -5.1875 Z M 4.484375 -5.1875"></path></g></g></g><g fill-opacity="1" fill="#000000"><g transform="translate(162.441563, 172.528114)"><g><path d="M 3.921875 -5.40625 C 4.335938 -5.40625 4.734375 -5.296875 5.109375 -5.078125 C 5.484375 -4.859375 5.785156 -4.539062 6.015625 -4.125 C 6.253906 -3.707031 6.375 -3.195312 6.375 -2.59375 C 6.375 -1.988281 6.257812 -1.476562 6.03125 -1.0625 C 5.8125 -0.644531 5.507812 -0.328125 5.125 -0.109375 C 4.75 0.109375 4.328125 0.21875 3.859375 0.21875 C 3.273438 0.21875 2.8125 0.0664062 2.46875 -0.234375 C 2.125 -0.546875 1.882812 -0.9375 1.75 -1.40625 C 1.757812 -1.175781 1.769531 -0.957031 1.78125 -0.75 C 1.789062 -0.550781 1.816406 -0.300781 1.859375 0 L 0.796875 0 L 0.796875 -6.671875 C 0.796875 -6.890625 0.789062 -7.09375 0.78125 -7.28125 C 0.78125 -7.46875 0.773438 -7.675781 0.765625 -7.90625 C 0.753906 -8.144531 0.734375 -8.441406 0.703125 -8.796875 L 1.84375 -8.796875 C 1.8125 -8.441406 1.789062 -8.144531 1.78125 -7.90625 C 1.769531 -7.675781 1.757812 -7.46875 1.75 -7.28125 C 1.75 -7.09375 1.75 -6.890625 1.75 -6.671875 L 1.75 -4.265625 C 2.007812 -4.585938 2.320312 -4.859375 2.6875 -5.078125 C 3.0625 -5.296875 3.472656 -5.40625 3.921875 -5.40625 Z M 3.5625 -0.046875 C 3.976562 -0.046875 4.316406 -0.160156 4.578125 -0.390625 C 4.835938 -0.617188 5.023438 -0.925781 5.140625 -1.3125 C 5.253906 -1.695312 5.3125 -2.125 5.3125 -2.59375 C 5.3125 -3.375 5.164062 -4 4.875 -4.46875 C 4.582031 -4.9375 4.175781 -5.171875 3.65625 -5.171875 C 3.289062 -5.171875 2.9375 -5.054688 2.59375 -4.828125 C 2.257812 -4.609375 1.976562 -4.347656 1.75 -4.046875 L 1.75 -2.46875 C 1.75 -2 1.816406 -1.582031 1.953125 -1.21875 C 2.097656 -0.851562 2.304688 -0.566406 2.578125 -0.359375 C 2.847656 -0.148438 3.175781 -0.046875 3.5625 -0.046875 Z M 3.5625 -0.046875"></path></g></g></g><g fill-opacity="1" fill="#000000"><g transform="translate(169.322701, 172.528114)"><g><path d="M 5.859375 -1.96875 L 6.03125 -1.96875 C 5.84375 -1.3125 5.539062 -0.78125 5.125 -0.375 C 4.707031 0.0195312 4.144531 0.21875 3.4375 0.21875 C 2.882812 0.21875 2.382812 0.101562 1.9375 -0.125 C 1.5 -0.351562 1.148438 -0.675781 0.890625 -1.09375 C 0.640625 -1.519531 0.515625 -2.019531 0.515625 -2.59375 C 0.515625 -3.175781 0.644531 -3.675781 0.90625 -4.09375 C 1.164062 -4.519531 1.507812 -4.84375 1.9375 -5.0625 C 2.363281 -5.289062 2.820312 -5.40625 3.3125 -5.40625 C 3.832031 -5.40625 4.269531 -5.300781 4.625 -5.09375 C 4.988281 -4.894531 5.265625 -4.628906 5.453125 -4.296875 C 5.640625 -3.972656 5.734375 -3.628906 5.734375 -3.265625 L 1.609375 -3.265625 C 1.585938 -3.078125 1.578125 -2.875 1.578125 -2.65625 C 1.578125 -2.207031 1.65625 -1.78125 1.8125 -1.375 C 1.96875 -0.976562 2.203125 -0.65625 2.515625 -0.40625 C 2.828125 -0.164062 3.222656 -0.046875 3.703125 -0.046875 C 4.242188 -0.046875 4.691406 -0.210938 5.046875 -0.546875 C 5.410156 -0.890625 5.679688 -1.363281 5.859375 -1.96875 Z M 3.296875 -5.234375 C 2.859375 -5.234375 2.492188 -5.078125 2.203125 -4.765625 C 1.910156 -4.453125 1.71875 -4.007812 1.625 -3.4375 L 4.71875 -3.4375 C 4.71875 -3.9375 4.601562 -4.359375 4.375 -4.703125 C 4.144531 -5.054688 3.785156 -5.234375 3.296875 -5.234375 Z M 3.296875 -5.234375"></path></g></g></g><g fill-opacity="1" fill="#000000"><g transform="translate(175.753159, 172.528114)"><g><path d="M 4.484375 -5.1875 C 4.535156 -4.945312 4.492188 -4.753906 4.359375 -4.609375 C 4.222656 -4.472656 4.007812 -4.453125 3.71875 -4.546875 C 3.539062 -4.609375 3.367188 -4.628906 3.203125 -4.609375 C 3.035156 -4.597656 2.835938 -4.515625 2.609375 -4.359375 C 2.390625 -4.203125 2.101562 -3.941406 1.75 -3.578125 L 1.75 -2.0625 C 1.75 -1.71875 1.75 -1.390625 1.75 -1.078125 C 1.757812 -0.765625 1.789062 -0.40625 1.84375 0 L 0.703125 0 C 0.742188 -0.40625 0.769531 -0.765625 0.78125 -1.078125 C 0.789062 -1.390625 0.796875 -1.71875 0.796875 -2.0625 L 0.796875 -3.125 C 0.796875 -3.46875 0.789062 -3.796875 0.78125 -4.109375 C 0.769531 -4.421875 0.742188 -4.78125 0.703125 -5.1875 L 1.84375 -5.1875 C 1.8125 -4.925781 1.789062 -4.6875 1.78125 -4.46875 C 1.769531 -4.25 1.757812 -4.035156 1.75 -3.828125 C 2.03125 -4.128906 2.296875 -4.394531 2.546875 -4.625 C 2.804688 -4.851562 3.085938 -5.019531 3.390625 -5.125 C 3.691406 -5.238281 4.054688 -5.257812 4.484375 -5.1875 Z M 4.484375 -5.1875"></path></g></g></g><g fill-opacity="1" fill="#000000"><g transform="translate(180.523788, 172.528114)"><g><path d="M 5.671875 0 L 4.625 0 C 4.601562 -0.269531 4.582031 -0.5 4.5625 -0.6875 C 4.550781 -0.882812 4.546875 -1.082031 4.546875 -1.28125 C 4.410156 -0.863281 4.171875 -0.507812 3.828125 -0.21875 C 3.492188 0.0703125 3.023438 0.21875 2.421875 0.21875 C 2.117188 0.21875 1.828125 0.164062 1.546875 0.0625 C 1.273438 -0.0390625 1.050781 -0.195312 0.875 -0.40625 C 0.707031 -0.613281 0.625 -0.882812 0.625 -1.21875 C 0.625 -1.53125 0.691406 -1.785156 0.828125 -1.984375 C 0.960938 -2.191406 1.144531 -2.359375 1.375 -2.484375 C 1.613281 -2.617188 1.867188 -2.722656 2.140625 -2.796875 C 2.421875 -2.878906 2.703125 -2.941406 2.984375 -2.984375 C 3.453125 -3.066406 3.828125 -3.171875 4.109375 -3.296875 C 4.398438 -3.429688 4.546875 -3.664062 4.546875 -4 C 4.546875 -4.394531 4.457031 -4.695312 4.28125 -4.90625 C 4.101562 -5.125 3.84375 -5.234375 3.5 -5.234375 C 3.132812 -5.234375 2.847656 -5.171875 2.640625 -5.046875 C 2.429688 -4.929688 2.265625 -4.796875 2.140625 -4.640625 C 2.015625 -4.484375 1.898438 -4.347656 1.796875 -4.234375 C 1.679688 -4.097656 1.546875 -4.015625 1.390625 -3.984375 C 1.242188 -3.953125 1.113281 -3.972656 1 -4.046875 C 0.882812 -4.128906 0.8125 -4.257812 0.78125 -4.4375 C 1.144531 -4.6875 1.570312 -4.910156 2.0625 -5.109375 C 2.550781 -5.304688 3.066406 -5.40625 3.609375 -5.40625 C 4.160156 -5.40625 4.609375 -5.285156 4.953125 -5.046875 C 5.304688 -4.804688 5.488281 -4.394531 5.5 -3.8125 L 5.5 -2.140625 C 5.5 -1.765625 5.503906 -1.414062 5.515625 -1.09375 C 5.535156 -0.769531 5.585938 -0.40625 5.671875 0 Z M 2.84375 -0.109375 C 3.1875 -0.109375 3.484375 -0.203125 3.734375 -0.390625 C 3.992188 -0.578125 4.191406 -0.832031 4.328125 -1.15625 C 4.472656 -1.488281 4.546875 -1.859375 4.546875 -2.265625 L 4.546875 -3.4375 C 4.421875 -3.257812 4.238281 -3.132812 4 -3.0625 C 3.769531 -3 3.488281 -2.929688 3.15625 -2.859375 C 2.664062 -2.753906 2.296875 -2.578125 2.046875 -2.328125 C 1.804688 -2.085938 1.6875 -1.765625 1.6875 -1.359375 C 1.6875 -0.953125 1.789062 -0.640625 2 -0.421875 C 2.21875 -0.210938 2.5 -0.109375 2.84375 -0.109375 Z M 2.84375 -0.109375"></path></g></g></g><g fill-opacity="1" fill="#000000"><g transform="translate(186.811343, 172.528114)"><g></g></g></g><g fill-opacity="1" fill="#000000"><g transform="translate(189.955115, 172.528114)"><g><path d="M 0.765625 -8.796875 L 6.1875 -8.796875 L 5.6875 -8.1875 C 5.375 -8.3125 5.054688 -8.40625 4.734375 -8.46875 C 4.410156 -8.53125 4.113281 -8.570312 3.84375 -8.59375 C 3.570312 -8.613281 3.347656 -8.625 3.171875 -8.625 L 1.953125 -8.625 L 1.953125 -4.296875 L 2.578125 -4.296875 C 2.867188 -4.296875 3.175781 -4.300781 3.5 -4.3125 C 3.832031 -4.320312 4.257812 -4.351562 4.78125 -4.40625 L 4.78125 -4.015625 C 4.257812 -4.078125 3.832031 -4.109375 3.5 -4.109375 C 3.175781 -4.117188 2.867188 -4.125 2.578125 -4.125 L 1.953125 -4.125 L 1.953125 -2.171875 C 1.953125 -1.898438 1.953125 -1.660156 1.953125 -1.453125 C 1.960938 -1.242188 1.972656 -1.023438 1.984375 -0.796875 C 2.003906 -0.578125 2.03125 -0.3125 2.0625 0 L 0.765625 0 C 0.796875 -0.3125 0.816406 -0.578125 0.828125 -0.796875 C 0.847656 -1.023438 0.859375 -1.242188 0.859375 -1.453125 C 0.867188 -1.660156 0.875 -1.898438 0.875 -2.171875 L 0.875 -6.640625 C 0.875 -6.910156 0.867188 -7.148438 0.859375 -7.359375 C 0.859375 -7.566406 0.847656 -7.78125 0.828125 -8 C 0.816406 -8.226562 0.796875 -8.492188 0.765625 -8.796875 Z M 0.765625 -8.796875"></path></g></g></g><g fill-opacity="1" fill="#000000"><g transform="translate(196.462512, 172.528114)"><g><path d="M 1.46875 -6.53125 L 0.703125 -7.234375 L 1.46875 -7.921875 L 2.21875 -7.234375 Z M 0.90625 -5.1875 L 2.03125 -5.1875 C 1.988281 -4.78125 1.960938 -4.421875 1.953125 -4.109375 C 1.953125 -3.796875 1.953125 -3.46875 1.953125 -3.125 L 1.953125 -2.0625 C 1.953125 -1.71875 1.953125 -1.390625 1.953125 -1.078125 C 1.960938 -0.765625 1.988281 -0.40625 2.03125 0 L 0.90625 0 C 0.945312 -0.40625 0.96875 -0.765625 0.96875 -1.078125 C 0.976562 -1.390625 0.984375 -1.71875 0.984375 -2.0625 L 0.984375 -3.125 C 0.984375 -3.46875 0.976562 -3.796875 0.96875 -4.109375 C 0.96875 -4.421875 0.945312 -4.78125 0.90625 -5.1875 Z M 0.90625 -5.1875"></path></g></g></g><g fill-opacity="1" fill="#000000"><g transform="translate(199.386442, 172.528114)"><g><path d="M 4.5 0 C 4.53125 -0.351562 4.550781 -0.644531 4.5625 -0.875 C 4.570312 -1.113281 4.578125 -1.328125 4.578125 -1.515625 C 4.585938 -1.703125 4.59375 -1.910156 4.59375 -2.140625 L 4.59375 -3.625 C 4.59375 -4.632812 4.25 -5.140625 3.5625 -5.140625 C 3.28125 -5.140625 3.019531 -5.066406 2.78125 -4.921875 C 2.550781 -4.773438 2.347656 -4.59375 2.171875 -4.375 C 2.003906 -4.15625 1.863281 -3.929688 1.75 -3.703125 L 1.75 -2.0625 C 1.75 -1.71875 1.75 -1.390625 1.75 -1.078125 C 1.757812 -0.765625 1.789062 -0.40625 1.84375 0 L 0.703125 0 C 0.742188 -0.40625 0.769531 -0.765625 0.78125 -1.078125 C 0.789062 -1.390625 0.796875 -1.71875 0.796875 -2.0625 L 0.796875 -3.125 C 0.796875 -3.46875 0.789062 -3.796875 0.78125 -4.109375 C 0.769531 -4.421875 0.742188 -4.78125 0.703125 -5.1875 L 1.84375 -5.1875 C 1.8125 -4.957031 1.789062 -4.742188 1.78125 -4.546875 C 1.769531 -4.359375 1.765625 -4.175781 1.765625 -4 C 1.890625 -4.226562 2.050781 -4.453125 2.25 -4.671875 C 2.445312 -4.890625 2.679688 -5.066406 2.953125 -5.203125 C 3.222656 -5.335938 3.535156 -5.40625 3.890625 -5.40625 C 4.429688 -5.40625 4.835938 -5.242188 5.109375 -4.921875 C 5.390625 -4.597656 5.53125 -4.066406 5.53125 -3.328125 L 5.53125 -2.140625 C 5.53125 -1.910156 5.53125 -1.703125 5.53125 -1.515625 C 5.539062 -1.328125 5.550781 -1.113281 5.5625 -0.875 C 5.570312 -0.644531 5.59375 -0.351562 5.625 0 Z M 4.5 0"></path></g></g></g><g fill-opacity="1" fill="#000000"><g transform="translate(205.717966, 172.528114)"><g><path d="M 5.671875 0 L 4.625 0 C 4.601562 -0.269531 4.582031 -0.5 4.5625 -0.6875 C 4.550781 -0.882812 4.546875 -1.082031 4.546875 -1.28125 C 4.410156 -0.863281 4.171875 -0.507812 3.828125 -0.21875 C 3.492188 0.0703125 3.023438 0.21875 2.421875 0.21875 C 2.117188 0.21875 1.828125 0.164062 1.546875 0.0625 C 1.273438 -0.0390625 1.050781 -0.195312 0.875 -0.40625 C 0.707031 -0.613281 0.625 -0.882812 0.625 -1.21875 C 0.625 -1.53125 0.691406 -1.785156 0.828125 -1.984375 C 0.960938 -2.191406 1.144531 -2.359375 1.375 -2.484375 C 1.613281 -2.617188 1.867188 -2.722656 2.140625 -2.796875 C 2.421875 -2.878906 2.703125 -2.941406 2.984375 -2.984375 C 3.453125 -3.066406 3.828125 -3.171875 4.109375 -3.296875 C 4.398438 -3.429688 4.546875 -3.664062 4.546875 -4 C 4.546875 -4.394531 4.457031 -4.695312 4.28125 -4.90625 C 4.101562 -5.125 3.84375 -5.234375 3.5 -5.234375 C 3.132812 -5.234375 2.847656 -5.171875 2.640625 -5.046875 C 2.429688 -4.929688 2.265625 -4.796875 2.140625 -4.640625 C 2.015625 -4.484375 1.898438 -4.347656 1.796875 -4.234375 C 1.679688 -4.097656 1.546875 -4.015625 1.390625 -3.984375 C 1.242188 -3.953125 1.113281 -3.972656 1 -4.046875 C 0.882812 -4.128906 0.8125 -4.257812 0.78125 -4.4375 C 1.144531 -4.6875 1.570312 -4.910156 2.0625 -5.109375 C 2.550781 -5.304688 3.066406 -5.40625 3.609375 -5.40625 C 4.160156 -5.40625 4.609375 -5.285156 4.953125 -5.046875 C 5.304688 -4.804688 5.488281 -4.394531 5.5 -3.8125 L 5.5 -2.140625 C 5.5 -1.765625 5.503906 -1.414062 5.515625 -1.09375 C 5.535156 -0.769531 5.585938 -0.40625 5.671875 0 Z M 2.84375 -0.109375 C 3.1875 -0.109375 3.484375 -0.203125 3.734375 -0.390625 C 3.992188 -0.578125 4.191406 -0.832031 4.328125 -1.15625 C 4.472656 -1.488281 4.546875 -1.859375 4.546875 -2.265625 L 4.546875 -3.4375 C 4.421875 -3.257812 4.238281 -3.132812 4 -3.0625 C 3.769531 -3 3.488281 -2.929688 3.15625 -2.859375 C 2.664062 -2.753906 2.296875 -2.578125 2.046875 -2.328125 C 1.804688 -2.085938 1.6875 -1.765625 1.6875 -1.359375 C 1.6875 -0.953125 1.789062 -0.640625 2 -0.421875 C 2.21875 -0.210938 2.5 -0.109375 2.84375 -0.109375 Z M 2.84375 -0.109375"></path></g></g></g><g fill-opacity="1" fill="#000000"><g transform="translate(212.005521, 172.528114)"><g><path d="M 4.5 0 C 4.53125 -0.351562 4.550781 -0.644531 4.5625 -0.875 C 4.570312 -1.113281 4.578125 -1.328125 4.578125 -1.515625 C 4.585938 -1.703125 4.59375 -1.910156 4.59375 -2.140625 L 4.59375 -3.625 C 4.59375 -4.632812 4.25 -5.140625 3.5625 -5.140625 C 3.28125 -5.140625 3.019531 -5.066406 2.78125 -4.921875 C 2.550781 -4.773438 2.347656 -4.59375 2.171875 -4.375 C 2.003906 -4.15625 1.863281 -3.929688 1.75 -3.703125 L 1.75 -2.0625 C 1.75 -1.71875 1.75 -1.390625 1.75 -1.078125 C 1.757812 -0.765625 1.789062 -0.40625 1.84375 0 L 0.703125 0 C 0.742188 -0.40625 0.769531 -0.765625 0.78125 -1.078125 C 0.789062 -1.390625 0.796875 -1.71875 0.796875 -2.0625 L 0.796875 -3.125 C 0.796875 -3.46875 0.789062 -3.796875 0.78125 -4.109375 C 0.769531 -4.421875 0.742188 -4.78125 0.703125 -5.1875 L 1.84375 -5.1875 C 1.8125 -4.957031 1.789062 -4.742188 1.78125 -4.546875 C 1.769531 -4.359375 1.765625 -4.175781 1.765625 -4 C 1.890625 -4.226562 2.050781 -4.453125 2.25 -4.671875 C 2.445312 -4.890625 2.679688 -5.066406 2.953125 -5.203125 C 3.222656 -5.335938 3.535156 -5.40625 3.890625 -5.40625 C 4.429688 -5.40625 4.835938 -5.242188 5.109375 -4.921875 C 5.390625 -4.597656 5.53125 -4.066406 5.53125 -3.328125 L 5.53125 -2.140625 C 5.53125 -1.910156 5.53125 -1.703125 5.53125 -1.515625 C 5.539062 -1.328125 5.550781 -1.113281 5.5625 -0.875 C 5.570312 -0.644531 5.59375 -0.351562 5.625 0 Z M 4.5 0"></path></g></g></g><g fill-opacity="1" fill="#000000"><g transform="translate(218.337045, 172.528114)"><g><path d="M 0.515625 -2.59375 C 0.515625 -3.175781 0.632812 -3.675781 0.875 -4.09375 C 1.113281 -4.519531 1.4375 -4.84375 1.84375 -5.0625 C 2.257812 -5.289062 2.734375 -5.40625 3.265625 -5.40625 C 3.691406 -5.40625 4.054688 -5.332031 4.359375 -5.1875 C 4.660156 -5.039062 4.90625 -4.847656 5.09375 -4.609375 C 5.289062 -4.378906 5.429688 -4.140625 5.515625 -3.890625 C 5.429688 -3.765625 5.320312 -3.6875 5.1875 -3.65625 C 5.0625 -3.632812 4.941406 -3.664062 4.828125 -3.75 C 4.710938 -3.832031 4.640625 -3.957031 4.609375 -4.125 C 4.597656 -4.25 4.550781 -4.398438 4.46875 -4.578125 C 4.394531 -4.753906 4.265625 -4.90625 4.078125 -5.03125 C 3.898438 -5.164062 3.644531 -5.234375 3.3125 -5.234375 C 2.707031 -5.234375 2.265625 -5.007812 1.984375 -4.5625 C 1.710938 -4.113281 1.578125 -3.488281 1.578125 -2.6875 C 1.578125 -2.226562 1.644531 -1.800781 1.78125 -1.40625 C 1.914062 -1.007812 2.125 -0.6875 2.40625 -0.4375 C 2.695312 -0.195312 3.070312 -0.078125 3.53125 -0.078125 C 3.914062 -0.078125 4.242188 -0.164062 4.515625 -0.34375 C 4.785156 -0.519531 5.007812 -0.75 5.1875 -1.03125 C 5.375 -1.320312 5.519531 -1.644531 5.625 -2 L 5.78125 -2 C 5.664062 -1.625 5.503906 -1.265625 5.296875 -0.921875 C 5.097656 -0.585938 4.832031 -0.3125 4.5 -0.09375 C 4.164062 0.113281 3.742188 0.21875 3.234375 0.21875 C 2.722656 0.21875 2.257812 0.109375 1.84375 -0.109375 C 1.4375 -0.335938 1.113281 -0.660156 0.875 -1.078125 C 0.632812 -1.503906 0.515625 -2.007812 0.515625 -2.59375 Z M 0.515625 -2.59375"></path></g></g></g><g fill-opacity="1" fill="#000000"><g transform="translate(224.525666, 172.528114)"><g><path d="M 5.859375 -1.96875 L 6.03125 -1.96875 C 5.84375 -1.3125 5.539062 -0.78125 5.125 -0.375 C 4.707031 0.0195312 4.144531 0.21875 3.4375 0.21875 C 2.882812 0.21875 2.382812 0.101562 1.9375 -0.125 C 1.5 -0.351562 1.148438 -0.675781 0.890625 -1.09375 C 0.640625 -1.519531 0.515625 -2.019531 0.515625 -2.59375 C 0.515625 -3.175781 0.644531 -3.675781 0.90625 -4.09375 C 1.164062 -4.519531 1.507812 -4.84375 1.9375 -5.0625 C 2.363281 -5.289062 2.820312 -5.40625 3.3125 -5.40625 C 3.832031 -5.40625 4.269531 -5.300781 4.625 -5.09375 C 4.988281 -4.894531 5.265625 -4.628906 5.453125 -4.296875 C 5.640625 -3.972656 5.734375 -3.628906 5.734375 -3.265625 L 1.609375 -3.265625 C 1.585938 -3.078125 1.578125 -2.875 1.578125 -2.65625 C 1.578125 -2.207031 1.65625 -1.78125 1.8125 -1.375 C 1.96875 -0.976562 2.203125 -0.65625 2.515625 -0.40625 C 2.828125 -0.164062 3.222656 -0.046875 3.703125 -0.046875 C 4.242188 -0.046875 4.691406 -0.210938 5.046875 -0.546875 C 5.410156 -0.890625 5.679688 -1.363281 5.859375 -1.96875 Z M 3.296875 -5.234375 C 2.859375 -5.234375 2.492188 -5.078125 2.203125 -4.765625 C 1.910156 -4.453125 1.71875 -4.007812 1.625 -3.4375 L 4.71875 -3.4375 C 4.71875 -3.9375 4.601562 -4.359375 4.375 -4.703125 C 4.144531 -5.054688 3.785156 -5.234375 3.296875 -5.234375 Z M 3.296875 -5.234375"></path></g></g></g><g fill-opacity="1" fill="#000000"><g transform="translate(230.956124, 172.528114)"><g></g></g></g><g fill-opacity="1" fill="#000000"><g transform="translate(234.099896, 172.528114)"><g><path d="M 9.5625 -4.28125 L 8.65625 -4.28125 L 8.65625 -2.4375 C 8.65625 -2.050781 8.660156 -1.675781 8.671875 -1.3125 C 8.691406 -0.945312 8.726562 -0.507812 8.78125 0 L 8.296875 0 C 8.347656 -0.507812 8.378906 -0.945312 8.390625 -1.3125 C 8.410156 -1.675781 8.421875 -2.050781 8.421875 -2.4375 L 8.421875 -3 C 8.210938 -2 7.816406 -1.210938 7.234375 -0.640625 C 6.660156 -0.0664062 5.878906 0.21875 4.890625 0.21875 C 4.242188 0.21875 3.660156 0.0976562 3.140625 -0.140625 C 2.617188 -0.378906 2.171875 -0.710938 1.796875 -1.140625 C 1.429688 -1.566406 1.148438 -2.066406 0.953125 -2.640625 C 0.753906 -3.222656 0.65625 -3.847656 0.65625 -4.515625 C 0.65625 -5.179688 0.765625 -5.789062 0.984375 -6.34375 C 1.210938 -6.894531 1.523438 -7.367188 1.921875 -7.765625 C 2.316406 -8.171875 2.78125 -8.476562 3.3125 -8.6875 C 3.84375 -8.90625 4.410156 -9.015625 5.015625 -9.015625 C 5.867188 -9.015625 6.585938 -8.804688 7.171875 -8.390625 C 7.765625 -7.972656 8.25 -7.40625 8.625 -6.6875 L 7.515625 -6.390625 C 7.398438 -6.835938 7.234375 -7.242188 7.015625 -7.609375 C 6.804688 -7.984375 6.535156 -8.28125 6.203125 -8.5 C 5.878906 -8.726562 5.484375 -8.84375 5.015625 -8.84375 C 4.535156 -8.84375 4.097656 -8.734375 3.703125 -8.515625 C 3.304688 -8.296875 2.96875 -7.988281 2.6875 -7.59375 C 2.414062 -7.195312 2.207031 -6.738281 2.0625 -6.21875 C 1.914062 -5.707031 1.84375 -5.160156 1.84375 -4.578125 C 1.84375 -3.972656 1.914062 -3.40625 2.0625 -2.875 C 2.207031 -2.34375 2.421875 -1.875 2.703125 -1.46875 C 2.984375 -1.0625 3.328125 -0.738281 3.734375 -0.5 C 4.148438 -0.269531 4.632812 -0.15625 5.1875 -0.15625 C 5.84375 -0.15625 6.398438 -0.316406 6.859375 -0.640625 C 7.328125 -0.972656 7.691406 -1.445312 7.953125 -2.0625 C 8.222656 -2.6875 8.378906 -3.425781 8.421875 -4.28125 L 8.015625 -4.28125 C 7.859375 -4.28125 7.640625 -4.269531 7.359375 -4.25 C 7.085938 -4.226562 6.785156 -4.1875 6.453125 -4.125 C 6.128906 -4.0625 5.8125 -3.96875 5.5 -3.84375 L 5.015625 -4.453125 L 9.5625 -4.453125 Z M 9.5625 -4.28125"></path></g></g></g><g fill-opacity="1" fill="#000000"><g transform="translate(243.88298, 172.528114)"><g><path d="M 4.484375 -5.1875 C 4.535156 -4.945312 4.492188 -4.753906 4.359375 -4.609375 C 4.222656 -4.472656 4.007812 -4.453125 3.71875 -4.546875 C 3.539062 -4.609375 3.367188 -4.628906 3.203125 -4.609375 C 3.035156 -4.597656 2.835938 -4.515625 2.609375 -4.359375 C 2.390625 -4.203125 2.101562 -3.941406 1.75 -3.578125 L 1.75 -2.0625 C 1.75 -1.71875 1.75 -1.390625 1.75 -1.078125 C 1.757812 -0.765625 1.789062 -0.40625 1.84375 0 L 0.703125 0 C 0.742188 -0.40625 0.769531 -0.765625 0.78125 -1.078125 C 0.789062 -1.390625 0.796875 -1.71875 0.796875 -2.0625 L 0.796875 -3.125 C 0.796875 -3.46875 0.789062 -3.796875 0.78125 -4.109375 C 0.769531 -4.421875 0.742188 -4.78125 0.703125 -5.1875 L 1.84375 -5.1875 C 1.8125 -4.925781 1.789062 -4.6875 1.78125 -4.46875 C 1.769531 -4.25 1.757812 -4.035156 1.75 -3.828125 C 2.03125 -4.128906 2.296875 -4.394531 2.546875 -4.625 C 2.804688 -4.851562 3.085938 -5.019531 3.390625 -5.125 C 3.691406 -5.238281 4.054688 -5.257812 4.484375 -5.1875 Z M 4.484375 -5.1875"></path></g></g></g><g fill-opacity="1" fill="#000000"><g transform="translate(248.653609, 172.528114)"><g><path d="M 3.59375 0.21875 C 2.988281 0.21875 2.457031 0.101562 2 -0.125 C 1.539062 -0.363281 1.175781 -0.691406 0.90625 -1.109375 C 0.644531 -1.535156 0.515625 -2.03125 0.515625 -2.59375 C 0.515625 -3.15625 0.644531 -3.644531 0.90625 -4.0625 C 1.175781 -4.488281 1.539062 -4.816406 2 -5.046875 C 2.457031 -5.285156 2.988281 -5.40625 3.59375 -5.40625 C 4.1875 -5.40625 4.710938 -5.285156 5.171875 -5.046875 C 5.628906 -4.816406 5.988281 -4.488281 6.25 -4.0625 C 6.519531 -3.644531 6.65625 -3.15625 6.65625 -2.59375 C 6.65625 -2.03125 6.519531 -1.535156 6.25 -1.109375 C 5.988281 -0.691406 5.628906 -0.363281 5.171875 -0.125 C 4.710938 0.101562 4.1875 0.21875 3.59375 0.21875 Z M 3.59375 0.046875 C 4.257812 0.046875 4.757812 -0.191406 5.09375 -0.671875 C 5.425781 -1.148438 5.59375 -1.789062 5.59375 -2.59375 C 5.59375 -3.394531 5.425781 -4.035156 5.09375 -4.515625 C 4.757812 -4.992188 4.257812 -5.234375 3.59375 -5.234375 C 2.914062 -5.234375 2.410156 -4.992188 2.078125 -4.515625 C 1.742188 -4.035156 1.578125 -3.394531 1.578125 -2.59375 C 1.578125 -1.789062 1.742188 -1.148438 2.078125 -0.671875 C 2.410156 -0.191406 2.914062 0.046875 3.59375 0.046875 Z M 3.59375 0.046875"></path></g></g></g><g fill-opacity="1" fill="#000000"><g transform="translate(255.82054, 172.528114)"><g><path d="M 4.484375 -5.1875 L 5.5625 -5.1875 L 5.5625 0 L 4.53125 0 C 4.550781 -0.257812 4.566406 -0.476562 4.578125 -0.65625 C 4.585938 -0.84375 4.59375 -1.015625 4.59375 -1.171875 C 4.476562 -0.953125 4.316406 -0.734375 4.109375 -0.515625 C 3.910156 -0.304688 3.675781 -0.132812 3.40625 0 C 3.132812 0.144531 2.820312 0.21875 2.46875 0.21875 C 1.9375 0.21875 1.53125 0.0546875 1.25 -0.265625 C 0.976562 -0.597656 0.84375 -1.128906 0.84375 -1.859375 L 0.84375 -3.046875 C 0.84375 -3.273438 0.835938 -3.484375 0.828125 -3.671875 C 0.828125 -3.859375 0.816406 -4.066406 0.796875 -4.296875 C 0.773438 -4.535156 0.742188 -4.832031 0.703125 -5.1875 L 1.796875 -5.1875 L 1.796875 -1.578125 C 1.796875 -1.078125 1.875 -0.695312 2.03125 -0.4375 C 2.195312 -0.175781 2.457031 -0.046875 2.8125 -0.046875 C 3.09375 -0.046875 3.347656 -0.109375 3.578125 -0.234375 C 3.804688 -0.367188 4.003906 -0.539062 4.171875 -0.75 C 4.347656 -0.957031 4.492188 -1.175781 4.609375 -1.40625 L 4.609375 -3.046875 C 4.609375 -3.273438 4.601562 -3.484375 4.59375 -3.671875 C 4.59375 -3.859375 4.582031 -4.066406 4.5625 -4.296875 C 4.550781 -4.535156 4.523438 -4.832031 4.484375 -5.1875 Z M 4.484375 -5.1875"></path></g></g></g><g fill-opacity="1" fill="#000000"><g transform="translate(262.086111, 172.528114)"><g><path d="M 3.859375 -5.40625 C 4.328125 -5.40625 4.75 -5.296875 5.125 -5.078125 C 5.507812 -4.859375 5.8125 -4.539062 6.03125 -4.125 C 6.257812 -3.707031 6.375 -3.195312 6.375 -2.59375 C 6.375 -1.988281 6.253906 -1.476562 6.015625 -1.0625 C 5.785156 -0.644531 5.484375 -0.328125 5.109375 -0.109375 C 4.734375 0.109375 4.335938 0.21875 3.921875 0.21875 C 3.472656 0.21875 3.0625 0.109375 2.6875 -0.109375 C 2.320312 -0.328125 2.007812 -0.59375 1.75 -0.90625 L 1.75 0.5 C 1.75 0.84375 1.75 1.171875 1.75 1.484375 C 1.757812 1.796875 1.789062 2.179688 1.84375 2.640625 L 0.703125 2.640625 C 0.742188 2.179688 0.769531 1.796875 0.78125 1.484375 C 0.789062 1.171875 0.796875 0.84375 0.796875 0.5 L 0.796875 -3.046875 C 0.796875 -3.390625 0.789062 -3.71875 0.78125 -4.03125 C 0.769531 -4.351562 0.742188 -4.738281 0.703125 -5.1875 L 1.8125 -5.1875 C 1.789062 -4.9375 1.773438 -4.691406 1.765625 -4.453125 C 1.765625 -4.222656 1.757812 -4 1.75 -3.78125 C 1.882812 -4.25 2.125 -4.632812 2.46875 -4.9375 C 2.8125 -5.25 3.273438 -5.40625 3.859375 -5.40625 Z M 3.65625 -0.015625 C 4.175781 -0.015625 4.582031 -0.25 4.875 -0.71875 C 5.164062 -1.1875 5.3125 -1.8125 5.3125 -2.59375 C 5.3125 -3.0625 5.253906 -3.484375 5.140625 -3.859375 C 5.023438 -4.242188 4.835938 -4.550781 4.578125 -4.78125 C 4.316406 -5.019531 3.976562 -5.140625 3.5625 -5.140625 C 3.175781 -5.140625 2.847656 -5.035156 2.578125 -4.828125 C 2.304688 -4.617188 2.097656 -4.332031 1.953125 -3.96875 C 1.816406 -3.601562 1.75 -3.191406 1.75 -2.734375 L 1.75 -1.140625 C 1.976562 -0.847656 2.257812 -0.585938 2.59375 -0.359375 C 2.9375 -0.128906 3.289062 -0.015625 3.65625 -0.015625 Z M 3.65625 -0.015625"></path></g></g></g><g transform="matrix(1, 0, 0, 1, 166, 175)"><g clip-path="url(#31488fe901)"><g fill-opacity="1" fill="#8f6212"><g transform="translate(0.945592, 7.101242)"><g><path d="M 3.359375 -4.984375 L 3.359375 -4.453125 L 1.984375 -4.453125 L 1.984375 0 L 1.453125 0 L 1.453125 -4.453125 L 0.078125 -4.453125 L 0.078125 -4.984375 Z M 3.359375 -4.984375"></path></g></g></g><g clip-path="url(#fa45d15fda)"><g fill-opacity="1" fill="#8f6212"><g transform="translate(5.105934, 7.101242)"><g><path d="M 1.859375 -3.390625 C 2.085938 -3.390625 2.296875 -3.332031 2.484375 -3.21875 C 2.679688 -3.101562 2.832031 -2.953125 2.9375 -2.765625 C 3.050781 -2.578125 3.109375 -2.363281 3.109375 -2.125 L 3.109375 0 L 2.609375 0 L 2.609375 -2.125 C 2.609375 -2.332031 2.535156 -2.507812 2.390625 -2.65625 C 2.242188 -2.800781 2.066406 -2.875 1.859375 -2.875 C 1.648438 -2.875 1.472656 -2.800781 1.328125 -2.65625 C 1.191406 -2.507812 1.125 -2.332031 1.125 -2.125 L 1.125 0 L 0.609375 0 L 0.609375 -6.109375 L 1.125 -6.109375 L 1.125 -3.140625 C 1.226562 -3.222656 1.34375 -3.285156 1.46875 -3.328125 C 1.59375 -3.367188 1.722656 -3.390625 1.859375 -3.390625 Z M 1.859375 -3.390625"></path></g></g></g></g><g fill-opacity="1" fill="#8f6212"><g transform="translate(9.507004, 7.101242)"><g><path d="M 3.828125 -1.6875 L 3.8125 -1.578125 L 0.890625 -1.578125 C 0.898438 -1.367188 0.957031 -1.175781 1.0625 -1 C 1.175781 -0.832031 1.320312 -0.695312 1.5 -0.59375 C 1.6875 -0.5 1.882812 -0.453125 2.09375 -0.453125 C 2.34375 -0.453125 2.566406 -0.515625 2.765625 -0.640625 C 2.972656 -0.773438 3.125 -0.953125 3.21875 -1.171875 L 3.765625 -1.171875 C 3.691406 -0.929688 3.570312 -0.71875 3.40625 -0.53125 C 3.25 -0.34375 3.054688 -0.195312 2.828125 -0.09375 C 2.609375 0.0078125 2.363281 0.0625 2.09375 0.0625 C 1.78125 0.0625 1.492188 -0.015625 1.234375 -0.171875 C 0.972656 -0.328125 0.765625 -0.535156 0.609375 -0.796875 C 0.453125 -1.054688 0.375 -1.34375 0.375 -1.65625 C 0.375 -1.976562 0.453125 -2.269531 0.609375 -2.53125 C 0.765625 -2.789062 0.972656 -3 1.234375 -3.15625 C 1.492188 -3.3125 1.78125 -3.390625 2.09375 -3.390625 C 2.414062 -3.390625 2.703125 -3.3125 2.953125 -3.15625 C 3.210938 -3.007812 3.421875 -2.804688 3.578125 -2.546875 C 3.734375 -2.296875 3.816406 -2.007812 3.828125 -1.6875 Z M 2.09375 -2.875 C 1.832031 -2.875 1.597656 -2.796875 1.390625 -2.640625 C 1.179688 -2.492188 1.035156 -2.296875 0.953125 -2.046875 L 3.234375 -2.046875 C 3.160156 -2.296875 3.019531 -2.492188 2.8125 -2.640625 C 2.601562 -2.796875 2.363281 -2.875 2.09375 -2.875 Z M 2.09375 -2.875"></path></g></g></g><g fill-opacity="1" fill="#8f6212"><g transform="translate(14.397822, 7.101242)"><g></g></g></g><g fill-opacity="1" fill="#8f6212"><g transform="translate(17.122129, 7.101242)"><g><path d="M 4.1875 -4.984375 L 4.703125 -4.984375 L 4.703125 0 L 4.203125 0 L 1.140625 -4.09375 L 1.140625 0 L 0.609375 0 L 0.609375 -4.984375 L 1.109375 -4.984375 L 4.1875 -0.890625 Z M 4.1875 -4.984375"></path></g></g></g><g fill-opacity="1" fill="#8f6212"><g transform="translate(23.158451, 7.101242)"><g><path d="M 3.828125 -1.6875 L 3.8125 -1.578125 L 0.890625 -1.578125 C 0.898438 -1.367188 0.957031 -1.175781 1.0625 -1 C 1.175781 -0.832031 1.320312 -0.695312 1.5 -0.59375 C 1.6875 -0.5 1.882812 -0.453125 2.09375 -0.453125 C 2.34375 -0.453125 2.566406 -0.515625 2.765625 -0.640625 C 2.972656 -0.773438 3.125 -0.953125 3.21875 -1.171875 L 3.765625 -1.171875 C 3.691406 -0.929688 3.570312 -0.71875 3.40625 -0.53125 C 3.25 -0.34375 3.054688 -0.195312 2.828125 -0.09375 C 2.609375 0.0078125 2.363281 0.0625 2.09375 0.0625 C 1.78125 0.0625 1.492188 -0.015625 1.234375 -0.171875 C 0.972656 -0.328125 0.765625 -0.535156 0.609375 -0.796875 C 0.453125 -1.054688 0.375 -1.34375 0.375 -1.65625 C 0.375 -1.976562 0.453125 -2.269531 0.609375 -2.53125 C 0.765625 -2.789062 0.972656 -3 1.234375 -3.15625 C 1.492188 -3.3125 1.78125 -3.390625 2.09375 -3.390625 C 2.414062 -3.390625 2.703125 -3.3125 2.953125 -3.15625 C 3.210938 -3.007812 3.421875 -2.804688 3.578125 -2.546875 C 3.734375 -2.296875 3.816406 -2.007812 3.828125 -1.6875 Z M 2.09375 -2.875 C 1.832031 -2.875 1.597656 -2.796875 1.390625 -2.640625 C 1.179688 -2.492188 1.035156 -2.296875 0.953125 -2.046875 L 3.234375 -2.046875 C 3.160156 -2.296875 3.019531 -2.492188 2.8125 -2.640625 C 2.601562 -2.796875 2.363281 -2.875 2.09375 -2.875 Z M 2.09375 -2.875"></path></g></g></g><g fill-opacity="1" fill="#8f6212"><g transform="translate(28.049269, 7.101242)"><g><path d="M 2.140625 -2.828125 L 1.25 -2.828125 L 1.25 -0.9375 C 1.25 -0.78125 1.296875 -0.65625 1.390625 -0.5625 C 1.492188 -0.476562 1.613281 -0.4375 1.75 -0.4375 L 2.125 -0.4375 L 2.125 -0.046875 C 2.082031 -0.015625 2.019531 0.0078125 1.9375 0.03125 C 1.851562 0.0507812 1.769531 0.0625 1.6875 0.0625 C 1.507812 0.0625 1.347656 0.0195312 1.203125 -0.0625 C 1.066406 -0.144531 0.953125 -0.253906 0.859375 -0.390625 C 0.773438 -0.535156 0.734375 -0.695312 0.734375 -0.875 L 0.734375 -2.828125 L 0.171875 -2.828125 L 0.171875 -3.328125 L 0.734375 -3.328125 L 0.734375 -4.765625 L 1.25 -4.765625 L 1.25 -3.328125 L 2.140625 -3.328125 Z M 2.140625 -2.828125"></path></g></g></g><g clip-path="url(#3fe6fcc1e5)"><g fill-opacity="1" fill="#8f6212"><g transform="translate(31.180321, 7.101242)"><g><path d="M 1.859375 -3.390625 C 2.085938 -3.390625 2.296875 -3.332031 2.484375 -3.21875 C 2.679688 -3.101562 2.832031 -2.953125 2.9375 -2.765625 C 3.050781 -2.578125 3.109375 -2.363281 3.109375 -2.125 L 3.109375 0 L 2.609375 0 L 2.609375 -2.125 C 2.609375 -2.332031 2.535156 -2.507812 2.390625 -2.65625 C 2.242188 -2.800781 2.066406 -2.875 1.859375 -2.875 C 1.648438 -2.875 1.472656 -2.800781 1.328125 -2.65625 C 1.191406 -2.507812 1.125 -2.332031 1.125 -2.125 L 1.125 0 L 0.609375 0 L 0.609375 -6.109375 L 1.125 -6.109375 L 1.125 -3.140625 C 1.226562 -3.222656 1.34375 -3.285156 1.46875 -3.328125 C 1.59375 -3.367188 1.722656 -3.390625 1.859375 -3.390625 Z M 1.859375 -3.390625"></path></g></g></g></g><g fill-opacity="1" fill="#8f6212"><g transform="translate(35.581391, 7.101242)"><g><path d="M 3.828125 -1.6875 L 3.8125 -1.578125 L 0.890625 -1.578125 C 0.898438 -1.367188 0.957031 -1.175781 1.0625 -1 C 1.175781 -0.832031 1.320312 -0.695312 1.5 -0.59375 C 1.6875 -0.5 1.882812 -0.453125 2.09375 -0.453125 C 2.34375 -0.453125 2.566406 -0.515625 2.765625 -0.640625 C 2.972656 -0.773438 3.125 -0.953125 3.21875 -1.171875 L 3.765625 -1.171875 C 3.691406 -0.929688 3.570312 -0.71875 3.40625 -0.53125 C 3.25 -0.34375 3.054688 -0.195312 2.828125 -0.09375 C 2.609375 0.0078125 2.363281 0.0625 2.09375 0.0625 C 1.78125 0.0625 1.492188 -0.015625 1.234375 -0.171875 C 0.972656 -0.328125 0.765625 -0.535156 0.609375 -0.796875 C 0.453125 -1.054688 0.375 -1.34375 0.375 -1.65625 C 0.375 -1.976562 0.453125 -2.269531 0.609375 -2.53125 C 0.765625 -2.789062 0.972656 -3 1.234375 -3.15625 C 1.492188 -3.3125 1.78125 -3.390625 2.09375 -3.390625 C 2.414062 -3.390625 2.703125 -3.3125 2.953125 -3.15625 C 3.210938 -3.007812 3.421875 -2.804688 3.578125 -2.546875 C 3.734375 -2.296875 3.816406 -2.007812 3.828125 -1.6875 Z M 2.09375 -2.875 C 1.832031 -2.875 1.597656 -2.796875 1.390625 -2.640625 C 1.179688 -2.492188 1.035156 -2.296875 0.953125 -2.046875 L 3.234375 -2.046875 C 3.160156 -2.296875 3.019531 -2.492188 2.8125 -2.640625 C 2.601562 -2.796875 2.363281 -2.875 2.09375 -2.875 Z M 2.09375 -2.875"></path></g></g></g><g fill-opacity="1" fill="#8f6212"><g transform="translate(40.472208, 7.101242)"><g><path d="M 2.21875 -3.390625 C 2.320312 -3.390625 2.410156 -3.378906 2.484375 -3.359375 L 2.484375 -2.84375 C 2.410156 -2.863281 2.320312 -2.875 2.21875 -2.875 C 2.019531 -2.875 1.835938 -2.828125 1.671875 -2.734375 C 1.503906 -2.640625 1.367188 -2.507812 1.265625 -2.34375 C 1.171875 -2.1875 1.125 -2.003906 1.125 -1.796875 L 1.125 0 L 0.609375 0 L 0.609375 -3.328125 L 1.125 -3.328125 L 1.125 -2.84375 C 1.25 -3.007812 1.40625 -3.140625 1.59375 -3.234375 C 1.78125 -3.335938 1.988281 -3.390625 2.21875 -3.390625 Z M 2.21875 -3.390625"></path></g></g></g><g clip-path="url(#43fe1b79d3)"><g fill-opacity="1" fill="#8f6212"><g transform="translate(43.719466, 7.101242)"><g><path d="M 0.609375 0 L 0.609375 -6.109375 L 1.125 -6.109375 L 1.125 0 Z M 0.609375 0"></path></g></g></g></g><g fill-opacity="1" fill="#8f6212"><g transform="translate(46.169852, 7.101242)"><g><path d="M 4.171875 -0.4375 L 4.375 -0.4375 L 4.375 0 C 4.300781 0.0390625 4.21875 0.0625 4.125 0.0625 C 3.925781 0.0625 3.757812 0.0078125 3.625 -0.09375 C 3.5 -0.195312 3.410156 -0.332031 3.359375 -0.5 C 3.203125 -0.332031 3.015625 -0.195312 2.796875 -0.09375 C 2.578125 0.0078125 2.34375 0.0625 2.09375 0.0625 C 1.78125 0.0625 1.492188 -0.015625 1.234375 -0.171875 C 0.972656 -0.328125 0.765625 -0.535156 0.609375 -0.796875 C 0.453125 -1.054688 0.375 -1.34375 0.375 -1.65625 C 0.375 -1.976562 0.453125 -2.269531 0.609375 -2.53125 C 0.765625 -2.789062 0.972656 -3 1.234375 -3.15625 C 1.492188 -3.3125 1.78125 -3.390625 2.09375 -3.390625 C 2.332031 -3.390625 2.554688 -3.34375 2.765625 -3.25 C 2.972656 -3.164062 3.15625 -3.046875 3.3125 -2.890625 L 3.3125 -3.328125 L 3.828125 -3.328125 L 3.828125 -0.859375 C 3.828125 -0.703125 3.859375 -0.59375 3.921875 -0.53125 C 3.992188 -0.46875 4.078125 -0.4375 4.171875 -0.4375 Z M 2.09375 -0.453125 C 2.320312 -0.453125 2.523438 -0.503906 2.703125 -0.609375 C 2.890625 -0.710938 3.035156 -0.859375 3.140625 -1.046875 C 3.253906 -1.234375 3.3125 -1.4375 3.3125 -1.65625 C 3.3125 -1.882812 3.253906 -2.085938 3.140625 -2.265625 C 3.035156 -2.453125 2.890625 -2.597656 2.703125 -2.703125 C 2.523438 -2.816406 2.320312 -2.875 2.09375 -2.875 C 1.875 -2.875 1.671875 -2.816406 1.484375 -2.703125 C 1.304688 -2.597656 1.160156 -2.453125 1.046875 -2.265625 C 0.941406 -2.085938 0.890625 -1.882812 0.890625 -1.65625 C 0.890625 -1.4375 0.941406 -1.234375 1.046875 -1.046875 C 1.160156 -0.859375 1.304688 -0.710938 1.484375 -0.609375 C 1.671875 -0.503906 1.875 -0.453125 2.09375 -0.453125 Z M 2.09375 -0.453125"></path></g></g></g><g fill-opacity="1" fill="#8f6212"><g transform="translate(51.367793, 7.101242)"><g><path d="M 1.921875 -3.390625 C 2.140625 -3.390625 2.34375 -3.332031 2.53125 -3.21875 C 2.71875 -3.101562 2.867188 -2.945312 2.984375 -2.75 C 3.097656 -2.5625 3.15625 -2.347656 3.15625 -2.109375 L 3.15625 0 L 2.640625 0 L 2.640625 -2.109375 C 2.640625 -2.328125 2.566406 -2.507812 2.421875 -2.65625 C 2.273438 -2.800781 2.097656 -2.875 1.890625 -2.875 C 1.671875 -2.875 1.488281 -2.800781 1.34375 -2.65625 C 1.195312 -2.507812 1.125 -2.328125 1.125 -2.109375 L 1.125 0 L 0.609375 0 L 0.609375 -3.328125 L 1.125 -3.328125 L 1.125 -3.0625 C 1.226562 -3.164062 1.347656 -3.242188 1.484375 -3.296875 C 1.617188 -3.359375 1.765625 -3.390625 1.921875 -3.390625 Z M 1.921875 -3.390625"></path></g></g></g><g clip-path="url(#80d585d6e0)"><g fill-opacity="1" fill="#8f6212"><g transform="translate(55.810365, 7.101242)"><g><path d="M 3.3125 -6.109375 L 3.828125 -6.109375 L 3.828125 0 L 3.3125 0 L 3.3125 -0.4375 C 3.15625 -0.28125 2.972656 -0.15625 2.765625 -0.0625 C 2.554688 0.0195312 2.332031 0.0625 2.09375 0.0625 C 1.78125 0.0625 1.492188 -0.015625 1.234375 -0.171875 C 0.972656 -0.328125 0.765625 -0.535156 0.609375 -0.796875 C 0.453125 -1.054688 0.375 -1.34375 0.375 -1.65625 C 0.375 -1.976562 0.453125 -2.269531 0.609375 -2.53125 C 0.765625 -2.789062 0.972656 -3 1.234375 -3.15625 C 1.492188 -3.3125 1.78125 -3.390625 2.09375 -3.390625 C 2.332031 -3.390625 2.554688 -3.34375 2.765625 -3.25 C 2.972656 -3.164062 3.15625 -3.046875 3.3125 -2.890625 Z M 2.09375 -0.453125 C 2.320312 -0.453125 2.523438 -0.503906 2.703125 -0.609375 C 2.890625 -0.710938 3.035156 -0.859375 3.140625 -1.046875 C 3.253906 -1.234375 3.3125 -1.4375 3.3125 -1.65625 C 3.3125 -1.882812 3.253906 -2.085938 3.140625 -2.265625 C 3.035156 -2.453125 2.890625 -2.597656 2.703125 -2.703125 C 2.523438 -2.816406 2.320312 -2.875 2.09375 -2.875 C 1.875 -2.875 1.671875 -2.816406 1.484375 -2.703125 C 1.304688 -2.597656 1.160156 -2.453125 1.046875 -2.265625 C 0.941406 -2.085938 0.890625 -1.882812 0.890625 -1.65625 C 0.890625 -1.4375 0.941406 -1.234375 1.046875 -1.046875 C 1.160156 -0.859375 1.304688 -0.710938 1.484375 -0.609375 C 1.671875 -0.503906 1.875 -0.453125 2.09375 -0.453125 Z M 2.09375 -0.453125"></path></g></g></g></g><g fill-opacity="1" fill="#8f6212"><g transform="translate(60.966803, 7.101242)"><g><path d="M 1.421875 0.0625 C 1.160156 0.0625 0.914062 -0.00390625 0.6875 -0.140625 C 0.46875 -0.285156 0.332031 -0.457031 0.28125 -0.65625 L 0.765625 -0.859375 C 0.796875 -0.734375 0.875 -0.628906 1 -0.546875 C 1.132812 -0.472656 1.273438 -0.4375 1.421875 -0.4375 C 1.578125 -0.4375 1.707031 -0.476562 1.8125 -0.5625 C 1.914062 -0.644531 1.96875 -0.753906 1.96875 -0.890625 C 1.96875 -1.023438 1.914062 -1.128906 1.8125 -1.203125 C 1.707031 -1.273438 1.554688 -1.347656 1.359375 -1.421875 C 1.066406 -1.535156 0.835938 -1.664062 0.671875 -1.8125 C 0.503906 -1.96875 0.421875 -2.175781 0.421875 -2.4375 C 0.421875 -2.644531 0.46875 -2.816406 0.5625 -2.953125 C 0.65625 -3.085938 0.773438 -3.191406 0.921875 -3.265625 C 1.066406 -3.347656 1.222656 -3.390625 1.390625 -3.390625 C 1.597656 -3.390625 1.796875 -3.332031 1.984375 -3.21875 C 2.171875 -3.113281 2.296875 -2.988281 2.359375 -2.84375 L 1.90625 -2.609375 C 1.863281 -2.691406 1.796875 -2.753906 1.703125 -2.796875 C 1.617188 -2.847656 1.519531 -2.875 1.40625 -2.875 C 1.269531 -2.875 1.160156 -2.835938 1.078125 -2.765625 C 0.992188 -2.703125 0.953125 -2.597656 0.953125 -2.453125 C 0.953125 -2.304688 1 -2.195312 1.09375 -2.125 C 1.195312 -2.0625 1.351562 -1.988281 1.5625 -1.90625 C 1.707031 -1.84375 1.847656 -1.769531 1.984375 -1.6875 C 2.128906 -1.613281 2.25 -1.515625 2.34375 -1.390625 C 2.4375 -1.265625 2.484375 -1.097656 2.484375 -0.890625 C 2.484375 -0.609375 2.378906 -0.378906 2.171875 -0.203125 C 1.972656 -0.0234375 1.722656 0.0625 1.421875 0.0625 Z M 1.421875 0.0625"></path></g></g></g></g></g></svg>